<svg preserveAspectRatio="none" width="100%" height="100%" overflow="visible" style="display: block;" viewBox="0 0 150 51.0453" fill="none" xmlns="http://www.w3.org/2000/svg">
<g id="Brand / Dark" clip-path="url(#clip0_0_8)">
<path id="Vector" d="M0 10.8594H10.8839L24.7362 39.9407L37.3286 14.6055H47.6744V15.1442C47.6744 15.1442 45.7189 15.1442 45.2651 15.9393C44.8114 16.7343 44.5845 18.0681 44.5845 18.9476V47.2992C44.5845 47.2992 44.443 48.8601 45.1226 49.5125C45.8022 50.1648 46.2278 50.4493 46.7378 50.4493H47.6734V51.0453H36.5626V50.4211C36.5626 50.4211 38.1779 50.6201 38.8585 49.6833C39.5391 48.7466 39.4538 48.3777 39.4538 47.4128V17.9546C39.4538 17.9546 39.1988 17.0751 38.7732 17.8983C38.3475 18.7215 24.0626 47.5274 24.0626 47.5274C24.0626 47.5274 23.8638 47.7827 23.5526 47.7827C23.2414 47.7827 22.872 46.874 22.6451 46.4207C22.4182 45.9674 15.9845 33.139 15.9845 33.139L6.74394 14.7492C6.74394 14.7492 6.34742 14.2386 6.34742 15.2598V44.718C6.34742 44.718 6.51707 48.1807 7.11236 48.9747C7.70765 49.7688 8.21761 50.394 8.72757 50.394C9.23754 50.394 9.7475 50.4503 9.7475 50.4503V51.0463H0.567182V50.4221C0.567182 50.4221 2.1824 50.5075 2.74958 49.8834C3.31676 49.2592 3.7695 47.8681 3.82672 47.1876C3.88394 46.5071 3.91205 44.8316 3.94016 44.2929C3.96827 43.7541 3.94016 14.7773 3.94016 14.7773C3.94016 14.7773 4.02549 13.1028 3.4583 12.6203C2.89112 12.1379 1.559 11.57 0.850271 11.57H0.141544L0 10.8604V10.8594Z" fill="var(--fill-0, white)"/>
<g id="Group">
<path id="Vector_2" d="M47.6754 7.2369H54.9032C49.7915 7.2369 47.6754 5.36335 47.6754 0C47.6754 5.1181 45.8042 7.2369 40.4476 7.2369H47.6754Z" fill="var(--fill-0, white)"/>
<path id="Vector_3" d="M47.6754 7.2369H40.4476C45.5593 7.2369 47.6754 9.11045 47.6754 14.4738C47.6754 9.3557 49.5466 7.2369 54.9032 7.2369H47.6754Z" fill="var(--fill-0, white)"/>
</g>
<g id="Group_2">
<path id="Vector_4" d="M66.3803 26.4979C66.3261 26.4979 66.2729 26.4868 66.2197 26.4647C66.1665 26.4426 66.1253 26.4094 66.0992 26.3642L63.0806 19.5263H63.0405L63.0676 24.8595C63.0766 25.0294 63.0917 25.1932 63.1148 25.35C63.1368 25.5068 63.2061 25.6365 63.3226 25.74C63.439 25.8436 63.6358 25.8948 63.9128 25.8948C64.0112 25.8948 64.0915 25.9039 64.1548 25.922C64.217 25.94 64.2531 26.0255 64.2622 26.1773C64.2622 26.2486 64.2421 26.316 64.2019 26.3783C64.1618 26.4406 64.1016 26.4728 64.0212 26.4728C63.8335 26.4637 63.6809 26.4567 63.5655 26.4527C63.449 26.4476 63.3376 26.4436 63.2302 26.4396C63.1228 26.4346 62.9792 26.4326 62.8006 26.4326C62.5325 26.4326 62.3157 26.4346 62.15 26.4396C61.9844 26.4436 61.7585 26.4547 61.4724 26.4728C61.3831 26.4728 61.3199 26.4416 61.2847 26.3783C61.2486 26.316 61.2315 26.2486 61.2315 26.1773C61.2406 26.0255 61.2757 25.94 61.3389 25.922C61.4012 25.9039 61.4775 25.8948 61.5668 25.8948C61.8529 25.8948 62.0517 25.8436 62.1641 25.74C62.2755 25.6375 62.3448 25.5068 62.3719 25.35C62.399 25.1932 62.4121 25.0304 62.4121 24.8595L62.4392 19.5263C62.4392 19.2399 62.408 19.0268 62.3448 18.8881C62.2826 18.7494 62.1842 18.6509 62.0497 18.5926C61.9151 18.5343 61.7455 18.487 61.5397 18.4519C61.4142 18.4247 61.3269 18.4026 61.2777 18.3845C61.2285 18.3664 61.2034 18.286 61.2034 18.1423C61.2034 17.9905 61.2566 17.9071 61.364 17.894C61.4714 17.881 61.5969 17.8739 61.7395 17.8739C62.1772 17.8739 62.5646 17.9101 62.8999 17.9815C63.2352 18.0528 63.5284 18.1895 63.7783 18.3916C64.0283 18.5926 64.2341 18.8951 64.3957 19.2982L66.7036 24.4836H66.7437L69.3869 17.9543H70.1518C70.4199 17.9543 70.6819 17.9503 70.9369 17.9413C71.1918 17.9322 71.4619 17.9232 71.749 17.9141C71.8383 17.9141 71.9006 17.9453 71.9367 18.0086C71.9728 18.0709 71.9909 18.1383 71.9909 18.2096C71.9819 18.3624 71.9457 18.4468 71.8835 18.4649C71.8213 18.483 71.745 18.4921 71.6556 18.4921C71.3785 18.4921 71.1788 18.5433 71.0583 18.6469C70.9379 18.7504 70.8636 18.88 70.8365 19.0368C70.8094 19.1936 70.7913 19.3575 70.7823 19.5273V24.8605C70.7913 25.0304 70.8094 25.1942 70.8365 25.351C70.8636 25.5078 70.9368 25.6375 71.0583 25.741C71.1788 25.8446 71.3785 25.8958 71.6556 25.8958C71.745 25.8958 71.8213 25.9049 71.8835 25.923C71.9457 25.941 71.9819 26.0265 71.9909 26.1783C71.9909 26.2496 71.9728 26.317 71.9367 26.3793C71.9006 26.4416 71.8383 26.4738 71.749 26.4738C71.4629 26.4557 71.1898 26.4446 70.9308 26.4406C70.6708 26.4356 70.4078 26.4336 70.1388 26.4336C69.6198 26.4336 69.0697 26.4466 68.4884 26.4738C68.3991 26.4738 68.3358 26.4426 68.3007 26.3793C68.2646 26.317 68.2475 26.2496 68.2475 26.1783C68.2565 26.0265 68.2917 25.941 68.3549 25.923C68.4172 25.9049 68.4935 25.8958 68.5828 25.8958C68.8689 25.8958 69.0707 25.8446 69.1861 25.741C69.3026 25.6385 69.3758 25.5078 69.408 25.351C69.4391 25.1942 69.4552 25.0314 69.4552 24.8605V19.5273H69.415L66.6504 26.3652C66.6323 26.4104 66.5972 26.4436 66.5429 26.4657C66.4897 26.4878 66.4355 26.4989 66.3823 26.4989L66.3803 26.4979Z" fill="var(--fill-0, white)"/>
<path id="Vector_5" d="M76.0535 26.4708C75.9732 26.4708 75.915 26.4396 75.8789 26.3763C75.8427 26.314 75.8257 26.2466 75.8257 26.1752C75.8347 26.0235 75.8698 25.938 75.9331 25.9199C75.9953 25.9019 76.0716 25.8928 76.161 25.8928C76.4471 25.8928 76.6488 25.8415 76.7653 25.738C76.8817 25.6355 76.955 25.5048 76.9871 25.348C77.0183 25.1912 77.0343 25.0284 77.0343 24.8575V19.5243C77.0343 19.3545 77.0183 19.1906 76.9871 19.0338C76.956 18.877 76.8817 18.7474 76.7653 18.6438C76.6488 18.5413 76.4481 18.4891 76.161 18.4891C76.0716 18.4891 75.9953 18.48 75.9331 18.4619C75.8708 18.4438 75.8347 18.3594 75.8257 18.2066C75.8257 18.1353 75.8437 18.0679 75.8789 18.0056C75.915 17.9433 75.9732 17.9111 76.0535 17.9111C76.3487 17.9202 76.6217 17.9292 76.8717 17.9382C77.1217 17.9473 77.3817 17.9513 77.6497 17.9513H81.8629C81.9613 17.9513 82.0436 17.9734 82.1108 18.0187C82.1781 18.0639 82.2112 18.1483 82.2112 18.274L82.2514 20.1545C82.2514 20.244 82.2092 20.3113 82.1239 20.3556C82.0386 20.4008 81.9603 20.4229 81.889 20.4229C81.7906 20.4229 81.7013 20.4028 81.621 20.3626C81.5406 20.3224 81.4915 20.2621 81.4734 20.1817C81.4111 19.7786 81.3369 19.454 81.2515 19.2077C81.1662 18.9615 81.0417 18.7826 80.8761 18.67C80.7105 18.5584 80.4715 18.4981 80.1583 18.4891H78.3604V21.9015H80.7888C80.86 21.9105 80.9112 21.9467 80.9434 22.009C80.9745 22.0713 80.9905 22.1387 80.9905 22.21C80.9905 22.2723 80.9745 22.3337 80.9434 22.391C80.9122 22.4493 80.86 22.4784 80.7888 22.4784H78.3604V25.0173C78.3695 25.1339 78.3875 25.2616 78.4146 25.4003C78.4417 25.539 78.52 25.6576 78.6495 25.7561C78.779 25.8546 78.9959 25.8998 79.3 25.8908H80.5348C80.848 25.8818 81.0869 25.8305 81.2525 25.736C81.4182 25.6415 81.5497 25.4827 81.6481 25.2596C81.7464 25.0354 81.8539 24.7269 81.9703 24.3329C82.0064 24.2434 82.0667 24.1851 82.151 24.158C82.2363 24.1308 82.3277 24.1268 82.4261 24.1449C82.4973 24.1539 82.5716 24.1851 82.6479 24.2394C82.7242 24.2937 82.7573 24.365 82.7483 24.4545L82.4803 26.1471C82.4532 26.2727 82.411 26.3511 82.3528 26.3823C82.2945 26.4135 82.2072 26.4295 82.0908 26.4295H77.6627C77.3947 26.4295 77.1327 26.4316 76.8777 26.4366C76.6227 26.4406 76.3477 26.4517 76.0525 26.4698L76.0535 26.4708Z" fill="var(--fill-0, white)"/>
<path id="Vector_6" d="M86.7216 26.4708C86.6322 26.4708 86.569 26.4396 86.5338 26.3763C86.4977 26.314 86.4796 26.2466 86.4796 26.1752C86.4887 26.0235 86.5248 25.938 86.5871 25.9199C86.6493 25.9019 86.7256 25.8928 86.8149 25.8928C87.101 25.8928 87.3028 25.8415 87.4183 25.738C87.5347 25.6355 87.608 25.5048 87.6401 25.348C87.6712 25.1912 87.6873 25.0284 87.6873 24.8575V19.5374C87.6873 19.3675 87.6712 19.2017 87.6401 19.0399C87.609 18.879 87.5347 18.7464 87.4183 18.6438C87.3018 18.5413 87.101 18.4891 86.8149 18.4891C86.7256 18.4891 86.6493 18.48 86.5871 18.4619C86.5248 18.4438 86.4887 18.3594 86.4796 18.2066C86.4796 18.1353 86.4977 18.0679 86.5338 18.0056C86.569 17.9433 86.6322 17.9111 86.7216 17.9111C87.0077 17.9202 87.2787 17.9292 87.5337 17.9382C87.7887 17.9473 88.0507 17.9513 88.3187 17.9513H90.6266C91.3514 17.9604 91.9396 18.0719 92.3914 18.287C92.8431 18.5021 93.1714 18.7755 93.3772 19.1062C93.583 19.4379 93.6854 19.7827 93.6854 20.1405C93.6854 20.6149 93.4956 21.0632 93.1152 21.4843C92.7347 21.9055 92.2006 22.205 91.512 22.3849C91.8513 22.9227 92.1966 23.4624 92.545 24.0042C92.8933 24.5459 93.2959 25.0545 93.7526 25.529C93.8781 25.6275 94.0006 25.7079 94.122 25.7712C94.2425 25.8335 94.3881 25.8747 94.5577 25.8918C94.629 25.9008 94.7003 25.9119 94.7725 25.925C94.8438 25.938 94.884 26.0215 94.893 26.1732C94.893 26.2446 94.8749 26.3119 94.8398 26.3743C94.8037 26.4366 94.7414 26.4687 94.6521 26.4687C94.4644 26.4597 94.3148 26.4527 94.2023 26.4486C94.0899 26.4436 93.9805 26.4396 93.8741 26.4356C93.7667 26.4306 93.6231 26.4285 93.4444 26.4285C93.077 26.3572 92.7668 26.2275 92.5118 26.0386C92.2569 25.8506 92.0089 25.5903 91.767 25.2596C91.516 24.9188 91.2841 24.5741 91.0693 24.2253C90.8545 23.8765 90.6447 23.5358 90.4389 23.2041C90.3224 23.0161 90.204 22.8794 90.0835 22.794C89.963 22.7086 89.7372 22.6664 89.4059 22.6664H89.0164V24.8565C89.0254 25.0264 89.0435 25.1902 89.0696 25.347C89.0967 25.5038 89.17 25.6335 89.2915 25.737C89.4119 25.8405 89.6107 25.8918 89.8888 25.8918C89.9781 25.8918 90.0544 25.9009 90.1166 25.9189C90.1789 25.937 90.215 26.0225 90.224 26.1742C90.224 26.2456 90.206 26.313 90.1708 26.3753C90.1347 26.4376 90.0725 26.4698 89.9831 26.4698C89.4109 26.4426 88.8518 26.4295 88.3057 26.4295C88.0376 26.4295 87.7776 26.4316 87.5277 26.4366C87.2767 26.4406 87.0087 26.4517 86.7226 26.4698L86.7216 26.4708ZM89.0154 22.1447H90.1959C90.6517 22.1447 91.0121 22.0824 91.2761 21.9567C91.5401 21.8311 91.7389 21.6703 91.8734 21.4733C92.0079 21.2763 92.0952 21.0702 92.1354 20.8551C92.1756 20.64 92.1956 20.443 92.1956 20.2641C92.1956 19.9686 92.1304 19.6821 92.0009 19.4047C91.8714 19.1273 91.6435 18.8991 91.3162 18.7192C90.99 18.5403 90.5352 18.4509 89.954 18.4509C89.5695 18.4509 89.3166 18.5252 89.1961 18.673C89.0756 18.8207 89.0154 19.1183 89.0154 19.5665V22.1457V22.1447Z" fill="var(--fill-0, white)"/>
<path id="Vector_7" d="M98.4075 26.4708C98.3182 26.4708 98.2549 26.4396 98.2198 26.3763C98.1837 26.314 98.1656 26.2466 98.1656 26.1752C98.1746 26.0235 98.2108 25.938 98.273 25.9199C98.3352 25.9019 98.4115 25.8928 98.5009 25.8928C98.787 25.8928 98.9888 25.8415 99.1042 25.738C99.2207 25.6355 99.2939 25.5048 99.3261 25.348C99.3572 25.1912 99.3732 25.0284 99.3732 24.8575V19.5243C99.3732 19.3545 99.3572 19.1906 99.3261 19.0338C99.2949 18.877 99.2207 18.7474 99.1042 18.6438C98.9878 18.5413 98.787 18.4891 98.5009 18.4891C98.4115 18.4891 98.3352 18.48 98.273 18.4619C98.2108 18.4438 98.1746 18.3594 98.1656 18.2066C98.1656 18.1353 98.1837 18.0679 98.2198 18.0056C98.2549 17.9433 98.3182 17.9111 98.4075 17.9111C98.6936 17.9202 98.9617 17.9292 99.2126 17.9382C99.4626 17.9473 99.7226 17.9513 99.9906 17.9513C100.536 17.9513 101.095 17.9382 101.668 17.9111C101.757 17.9111 101.82 17.9423 101.856 18.0056C101.891 18.0679 101.909 18.1353 101.909 18.2066C101.9 18.3594 101.867 18.4438 101.809 18.4619C101.75 18.48 101.672 18.4891 101.574 18.4891C101.297 18.4891 101.097 18.5403 100.976 18.6438C100.856 18.7474 100.782 18.877 100.755 19.0338C100.727 19.1906 100.709 19.3545 100.701 19.5243V21.9557C100.853 21.9206 101.03 21.8281 101.231 21.6803C101.432 21.5326 101.636 21.3738 101.842 21.2039C102.181 20.8903 102.512 20.5526 102.835 20.1897C103.157 19.8269 103.456 19.4801 103.734 19.1484C104.091 18.7454 104.051 18.5303 103.614 18.5031C103.515 18.4941 103.453 18.4006 103.426 18.2207C103.426 18.1403 103.448 18.0689 103.493 18.0056C103.537 17.9433 103.595 17.9111 103.668 17.9111C103.901 17.9292 104.147 17.9403 104.406 17.9443C104.665 17.9493 104.911 17.9513 105.143 17.9513C105.322 17.9513 105.528 17.9473 105.761 17.9382C105.994 17.9292 106.194 17.9202 106.364 17.9111C106.453 17.9111 106.519 17.9423 106.559 18.0056C106.599 18.0679 106.619 18.1403 106.619 18.2207C106.61 18.3554 106.581 18.4358 106.532 18.4629C106.483 18.4901 106.422 18.5031 106.351 18.5031C106.02 18.485 105.694 18.5393 105.371 18.6639C105.049 18.7896 104.705 19.0358 104.338 19.4027C104.222 19.5284 104.072 19.6872 103.889 19.8801C103.705 20.0731 103.513 20.2721 103.311 20.4782C103.111 20.6842 102.922 20.8772 102.748 21.0561C102.574 21.2351 102.379 21.4411 102.165 21.6743C102.693 22.3105 103.227 22.8965 103.768 23.4343C104.309 23.972 104.772 24.4464 105.156 24.8585C105.461 25.1631 105.709 25.4023 105.901 25.5772C106.094 25.7521 106.342 25.8576 106.646 25.8928C106.717 25.9019 106.789 25.9129 106.861 25.926C106.932 25.939 106.972 26.0225 106.982 26.1742C106.982 26.2456 106.963 26.313 106.928 26.3753C106.892 26.4376 106.83 26.4698 106.741 26.4698C106.553 26.4607 106.407 26.4537 106.305 26.4496C106.202 26.4446 106.104 26.4406 106.01 26.4366C105.915 26.4316 105.78 26.4295 105.6 26.4295H104.742C104.25 25.8838 103.747 25.3189 103.232 24.7369C102.718 24.1549 102.165 23.5237 101.575 22.8423C101.414 22.6543 101.264 22.5196 101.125 22.4392C100.986 22.3588 100.845 22.3136 100.702 22.3045V24.8575C100.711 25.0274 100.729 25.1912 100.756 25.348C100.783 25.5048 100.856 25.6345 100.977 25.738C101.098 25.8415 101.297 25.8928 101.575 25.8928C101.673 25.8928 101.751 25.9019 101.81 25.9199C101.868 25.938 101.901 26.0235 101.91 26.1752C101.91 26.2466 101.892 26.314 101.857 26.3763C101.821 26.4386 101.758 26.4708 101.669 26.4708C101.097 26.4436 100.542 26.4306 100.006 26.4306C99.7376 26.4306 99.4756 26.4326 99.2207 26.4376C98.9657 26.4416 98.6946 26.4527 98.4085 26.4708H98.4075Z" fill="var(--fill-0, white)"/>
<path id="Vector_8" d="M114.482 26.6989C113.767 26.6989 113.167 26.5733 112.684 26.323C112.202 26.0727 111.839 25.7501 111.597 25.3561C111.355 24.9621 111.235 24.5459 111.235 24.1067V19.5253C111.235 19.3555 111.219 19.1916 111.188 19.0348C111.157 18.878 111.082 18.7484 110.966 18.6449C110.849 18.5423 110.649 18.4901 110.363 18.4901C110.273 18.4901 110.197 18.481 110.135 18.4629C110.072 18.4448 110.036 18.3604 110.027 18.2076C110.027 18.1363 110.045 18.0689 110.081 18.0066C110.117 17.9443 110.18 17.9121 110.269 17.9121C110.555 17.9212 110.823 17.9302 111.074 17.9393C111.324 17.9483 111.584 17.9523 111.852 17.9523C112.397 17.9523 112.956 17.9393 113.53 17.9121C113.619 17.9121 113.681 17.9433 113.717 18.0066C113.753 18.0689 113.771 18.1363 113.771 18.2076C113.762 18.3423 113.734 18.4227 113.69 18.4499C113.645 18.477 113.583 18.4901 113.503 18.4901C113.198 18.4901 112.982 18.5373 112.852 18.6308C112.723 18.7253 112.644 18.8499 112.617 19.0067C112.59 19.1635 112.572 19.3364 112.564 19.5243V23.7157C112.564 23.9489 112.588 24.1931 112.638 24.4484C112.687 24.7037 112.784 24.941 112.926 25.1601C113.069 25.3792 113.282 25.5591 113.564 25.6978C113.846 25.8365 114.223 25.9059 114.697 25.9059C115.306 25.9059 115.772 25.8054 116.1 25.6033C116.426 25.4023 116.652 25.149 116.777 24.8445C116.903 24.5399 116.965 24.2263 116.965 23.9037V20.3707C116.965 19.7796 116.943 19.3515 116.898 19.0871C116.852 18.8228 116.757 18.6569 116.61 18.5896C116.462 18.5222 116.236 18.4891 115.932 18.4891C115.843 18.4891 115.766 18.48 115.704 18.4619C115.642 18.4438 115.606 18.3594 115.597 18.2066C115.597 18.1353 115.615 18.0679 115.65 18.0056C115.686 17.9433 115.748 17.9111 115.838 17.9111C116.124 17.9202 116.379 17.9292 116.603 17.9382C116.826 17.9473 117.072 17.9513 117.34 17.9513C117.608 17.9513 117.854 17.9473 118.078 17.9382C118.302 17.9292 118.557 17.9202 118.843 17.9111C118.932 17.9111 118.995 17.9423 119.031 18.0056C119.067 18.0679 119.085 18.1353 119.085 18.2066C119.076 18.3413 119.049 18.4217 119.005 18.4489C118.96 18.476 118.897 18.4891 118.817 18.4891C118.575 18.4891 118.381 18.5021 118.234 18.5293C118.086 18.5564 117.974 18.6258 117.898 18.7373C117.822 18.8499 117.773 19.0288 117.751 19.2751C117.729 19.5213 117.718 19.859 117.718 20.2892V24.0373C117.718 24.5118 117.617 24.9198 117.416 25.2596C117.214 25.6003 116.951 25.8757 116.624 26.0858C116.297 26.2959 115.946 26.4507 115.571 26.5492C115.195 26.6477 114.833 26.6969 114.483 26.6969L114.482 26.6989Z" fill="var(--fill-0, white)"/>
<path id="Vector_9" d="M122.546 26.4708C122.457 26.4708 122.394 26.4396 122.359 26.3763C122.323 26.314 122.305 26.2466 122.305 26.1752C122.314 26.0235 122.35 25.938 122.413 25.9199C122.475 25.9019 122.551 25.8928 122.641 25.8928C122.927 25.8928 123.129 25.8415 123.245 25.738C123.362 25.6355 123.435 25.5048 123.467 25.348C123.498 25.1912 123.514 25.0284 123.514 24.8575V19.5374C123.514 19.3675 123.498 19.2017 123.467 19.0399C123.436 18.879 123.362 18.7464 123.245 18.6438C123.129 18.5413 122.928 18.4891 122.641 18.4891C122.551 18.4891 122.475 18.48 122.413 18.4619C122.351 18.4438 122.314 18.3594 122.305 18.2066C122.305 18.1353 122.324 18.0679 122.359 18.0056C122.395 17.9433 122.457 17.9111 122.546 17.9111C122.832 17.9202 123.104 17.9292 123.359 17.9382C123.613 17.9473 123.875 17.9513 124.144 17.9513H126.451C127.176 17.9604 127.764 18.0719 128.216 18.287C128.668 18.5021 128.996 18.7755 129.202 19.1062C129.408 19.4379 129.51 19.7827 129.51 20.1405C129.51 20.6149 129.32 21.0632 128.94 21.4843C128.56 21.9055 128.025 22.205 127.337 22.3849C127.677 22.9227 128.021 23.4624 128.37 24.0042C128.719 24.5459 129.122 25.0545 129.577 25.529C129.703 25.6275 129.825 25.7079 129.947 25.7712C130.067 25.8335 130.213 25.8747 130.383 25.8918C130.454 25.9008 130.525 25.9119 130.597 25.925C130.669 25.938 130.709 26.0215 130.718 26.1732C130.718 26.2446 130.7 26.3119 130.664 26.3743C130.627 26.4366 130.565 26.4687 130.476 26.4687C130.288 26.4597 130.139 26.4527 130.026 26.4486C129.914 26.4436 129.804 26.4396 129.697 26.4356C129.589 26.4306 129.446 26.4285 129.267 26.4285C128.9 26.3572 128.59 26.2275 128.335 26.0386C128.08 25.8496 127.832 25.5903 127.59 25.2596C127.339 24.9188 127.107 24.5741 126.892 24.2253C126.677 23.8765 126.467 23.5358 126.262 23.2041C126.145 23.0161 126.027 22.8794 125.906 22.794C125.786 22.7086 125.56 22.6664 125.229 22.6664H124.839V24.8565C124.848 25.0264 124.866 25.1902 124.893 25.347C124.921 25.5038 124.994 25.6335 125.115 25.737C125.236 25.8405 125.434 25.8918 125.713 25.8918C125.802 25.8918 125.878 25.9009 125.94 25.9189C126.003 25.937 126.039 26.0225 126.048 26.1742C126.048 26.2456 126.03 26.313 125.994 26.3753C125.957 26.4376 125.895 26.4698 125.806 26.4698C125.234 26.4426 124.675 26.4295 124.128 26.4295C123.86 26.4295 123.6 26.4316 123.35 26.4366C123.1 26.4406 122.831 26.4517 122.545 26.4698L122.546 26.4708ZM124.841 22.1447H126.022C126.478 22.1447 126.838 22.0824 127.102 21.9567C127.366 21.8311 127.565 21.6703 127.699 21.4733C127.834 21.2763 127.921 21.0702 127.961 20.8551C128.001 20.64 128.021 20.443 128.021 20.2641C128.021 19.9686 127.956 19.6821 127.827 19.4047C127.697 19.1273 127.468 18.8991 127.142 18.7192C126.816 18.5403 126.361 18.4509 125.78 18.4509C125.395 18.4509 125.142 18.5252 125.022 18.673C124.901 18.8207 124.841 19.1183 124.841 19.5665V22.1457V22.1447Z" fill="var(--fill-0, white)"/>
<path id="Vector_10" d="M134.22 26.4708C134.131 26.4708 134.068 26.4396 134.033 26.3763C133.996 26.314 133.979 26.2466 133.979 26.1752C133.988 26.0235 134.024 25.938 134.087 25.9199C134.149 25.9019 134.225 25.8928 134.315 25.8928C134.601 25.8928 134.803 25.8415 134.918 25.738C135.034 25.6355 135.108 25.5048 135.14 25.348C135.171 25.1912 135.191 25.0284 135.2 24.8575V19.5243C135.191 19.3545 135.171 19.1906 135.14 19.0338C135.109 18.877 135.034 18.7474 134.918 18.6438C134.801 18.5413 134.601 18.4891 134.315 18.4891C134.225 18.4891 134.149 18.48 134.087 18.4619C134.025 18.4438 133.988 18.3594 133.979 18.2066C133.979 18.1353 133.997 18.0679 134.033 18.0056C134.069 17.9433 134.131 17.9111 134.22 17.9111C134.506 17.9202 134.777 17.9292 135.032 17.9382C135.287 17.9473 135.549 17.9513 135.817 17.9513C136.363 17.9513 136.922 17.9382 137.495 17.9111C137.575 17.9111 137.635 17.9423 137.676 18.0056C137.716 18.0679 137.736 18.1353 137.736 18.2066C137.727 18.3594 137.691 18.4438 137.628 18.4619C137.566 18.48 137.485 18.4891 137.386 18.4891C137.109 18.4891 136.91 18.5403 136.789 18.6438C136.669 18.7474 136.594 18.877 136.567 19.0338C136.54 19.1906 136.522 19.3545 136.513 19.5243V24.8575C136.522 25.0274 136.54 25.1912 136.567 25.348C136.594 25.5048 136.668 25.6345 136.789 25.738C136.91 25.8415 137.109 25.8928 137.386 25.8928C137.485 25.8928 137.565 25.9019 137.628 25.9199C137.691 25.938 137.727 26.0235 137.736 26.1752C137.736 26.2466 137.716 26.314 137.676 26.3763C137.635 26.4386 137.575 26.4708 137.495 26.4708C136.923 26.4436 136.368 26.4306 135.831 26.4306C135.563 26.4306 135.299 26.4326 135.039 26.4376C134.779 26.4416 134.507 26.4527 134.221 26.4708H134.22Z" fill="var(--fill-0, white)"/>
<path id="Vector_11" d="M145.679 26.6989C145.026 26.6989 144.436 26.5783 143.909 26.3361C143.381 26.0938 142.929 25.7672 142.553 25.3551C142.178 24.943 141.891 24.4756 141.695 23.9509C141.498 23.4272 141.4 22.8784 141.4 22.3055C141.4 21.5617 141.527 20.9044 141.782 20.3304C142.037 19.7575 142.375 19.2741 142.795 18.879C143.216 18.485 143.679 18.1875 144.184 17.9855C144.689 17.7845 145.187 17.6829 145.679 17.6829C146.35 17.6829 146.951 17.8036 147.484 18.0458C148.016 18.288 148.47 18.6147 148.847 19.0268C149.222 19.4389 149.508 19.9063 149.705 20.431C149.902 20.9546 150 21.4994 150 22.0633C150 22.8071 149.87 23.4654 149.61 24.0383C149.35 24.6113 149.007 25.0957 148.578 25.4897C148.148 25.8838 147.681 26.1843 147.175 26.3903C146.669 26.5964 146.171 26.6989 145.679 26.6989ZM145.665 26.1079C146.301 26.1079 146.82 25.9199 147.221 25.544C147.624 25.1681 147.921 24.6726 148.114 24.0595C148.306 23.4463 148.402 22.7809 148.402 22.0643C148.402 21.3929 148.301 20.7677 148.1 20.1897C147.899 19.6118 147.597 19.1464 147.194 18.7926C146.792 18.4388 146.282 18.2619 145.664 18.2619C145.047 18.2619 144.526 18.4478 144.128 18.8197C143.73 19.1916 143.438 19.6791 143.25 20.2842C143.062 20.8893 142.968 21.5497 142.968 22.2653C142.968 22.9367 143.064 23.5659 143.256 24.1529C143.449 24.7399 143.746 25.2123 144.148 25.5702C144.551 25.928 145.056 26.1079 145.664 26.1079H145.665Z" fill="var(--fill-0, white)"/>
</g>
<g id="Group_3">
<path id="Vector_12" d="M64.0644 32.3356C64.0644 32.5678 64.0072 32.7648 63.8918 32.9286C63.7773 33.0915 63.6157 33.2161 63.4089 33.3015C63.2021 33.387 62.9592 33.4302 62.6791 33.4302C62.5315 33.4302 62.391 33.4231 62.2595 33.4091C62.128 33.395 62.0065 33.3739 61.8961 33.3478C61.7857 33.3216 61.6883 33.2885 61.605 33.2483V32.812C61.7385 32.8673 61.9021 32.9186 62.0939 32.9658C62.2866 33.0131 62.4874 33.0372 62.6982 33.0372C62.8939 33.0372 63.0596 33.011 63.1951 32.9578C63.3306 32.9055 63.433 32.8291 63.5043 32.7306C63.5756 32.6321 63.6097 32.5125 63.6097 32.3738C63.6097 32.2351 63.5806 32.1275 63.5213 32.0381C63.4621 31.9476 63.3647 31.8662 63.2282 31.7918C63.0917 31.7174 62.906 31.639 62.6711 31.5546C62.5054 31.4953 62.3589 31.431 62.2324 31.3606C62.1059 31.2903 61.9995 31.2099 61.9142 31.1214C61.8288 31.032 61.7636 30.9284 61.7204 30.8108C61.6773 30.6932 61.6552 30.5585 61.6552 30.4068C61.6552 30.1977 61.7084 30.0188 61.8138 29.87C61.9202 29.7213 62.0668 29.6067 62.2545 29.5273C62.4422 29.4479 62.658 29.4077 62.903 29.4077C63.1118 29.4077 63.3045 29.4278 63.4812 29.467C63.6589 29.5062 63.8215 29.5584 63.9691 29.6248L63.8275 30.0158C63.687 29.9565 63.5374 29.9082 63.3798 29.869C63.2222 29.8298 63.0596 29.8097 62.8919 29.8097C62.7243 29.8097 62.5827 29.8338 62.4683 29.8831C62.3539 29.9323 62.2655 30.0017 62.2053 30.0901C62.145 30.1786 62.1139 30.2851 62.1139 30.4088C62.1139 30.5465 62.143 30.6601 62.2013 30.7515C62.2595 30.843 62.3518 30.9234 62.4793 30.9938C62.6068 31.0641 62.7755 31.1375 62.9863 31.2149C63.2162 31.2983 63.4109 31.3878 63.5715 31.4812C63.7322 31.5747 63.8536 31.6893 63.9379 31.824C64.0213 31.9587 64.0634 32.1295 64.0634 32.3366L64.0644 32.3356Z" fill="var(--fill-0, white)"/>
<path id="Vector_13" d="M84.0031 29.4639C84.5071 29.4639 84.8755 29.5624 85.1084 29.7594C85.3413 29.9564 85.4567 30.2389 85.4567 30.6068C85.4567 30.7726 85.4296 30.9304 85.3754 31.0792C85.3212 31.2279 85.2328 31.3596 85.1124 31.4722C84.9919 31.5847 84.8323 31.6742 84.6356 31.7395C84.4388 31.8049 84.1979 31.837 83.9128 31.837H83.4369V33.3759H82.9822V29.4629H84.0031V29.4639ZM83.96 29.8519H83.4359V31.447H83.8606C84.1105 31.447 84.3183 31.4199 84.485 31.3666C84.6516 31.3134 84.7771 31.2259 84.8604 31.1053C84.9437 30.9847 84.9859 30.8249 84.9859 30.6249C84.9859 30.3645 84.9026 30.1705 84.7369 30.0429C84.5713 29.9152 84.3123 29.8519 83.9589 29.8519H83.96Z" fill="var(--fill-0, white)"/>
<path id="Vector_14" d="M106.847 33.3769L106.366 32.1346H104.8L104.321 33.3769H103.862L105.39 29.4479H105.799L107.317 33.3769H106.846H106.847ZM106.23 31.7305L105.773 30.4962C105.762 30.4641 105.745 30.4118 105.721 30.3384C105.697 30.265 105.672 30.1897 105.647 30.1113C105.622 30.0329 105.602 29.9695 105.586 29.9213C105.568 29.9947 105.549 30.067 105.529 30.1394C105.509 30.2118 105.489 30.2781 105.469 30.3404C105.449 30.4017 105.433 30.454 105.417 30.4972L104.953 31.7315H106.231L106.23 31.7305Z" fill="var(--fill-0, white)"/>
<path id="Vector_15" d="M127.649 29.8087C127.433 29.8087 127.239 29.8459 127.068 29.9203C126.896 29.9946 126.75 30.1012 126.629 30.2419C126.509 30.3826 126.416 30.5515 126.352 30.7495C126.288 30.9475 126.256 31.1706 126.256 31.4189C126.256 31.7476 126.307 32.032 126.409 32.2743C126.512 32.5165 126.665 32.7025 126.869 32.8351C127.073 32.9668 127.329 33.0331 127.635 33.0331C127.81 33.0331 127.974 33.0181 128.128 32.9889C128.282 32.9598 128.432 32.9226 128.579 32.8784V33.2744C128.436 33.3276 128.286 33.3678 128.13 33.394C127.973 33.4201 127.787 33.4332 127.571 33.4332C127.173 33.4332 126.841 33.3508 126.575 33.1859C126.309 33.0211 126.109 32.7879 125.977 32.4863C125.844 32.1848 125.778 31.829 125.778 31.4189C125.778 31.1224 125.819 30.852 125.902 30.6068C125.986 30.3615 126.106 30.1494 126.266 29.9715C126.425 29.7936 126.621 29.6549 126.854 29.5584C127.087 29.4609 127.354 29.4127 127.655 29.4127C127.853 29.4127 128.044 29.4328 128.227 29.472C128.411 29.5112 128.577 29.5675 128.724 29.6408L128.542 30.0258C128.418 29.9685 128.28 29.9193 128.132 29.877C127.983 29.8348 127.823 29.8137 127.649 29.8137V29.8087Z" fill="var(--fill-0, white)"/>
<path id="Vector_16" d="M149.723 33.3769H147.547V29.464H149.723V29.865H148.001V31.1315H149.624V31.5275H148.001V32.9759H149.723V33.3769Z" fill="var(--fill-0, white)"/>
</g>
</g>
<defs>
<clipPath id="clip0_0_8">
<rect width="150" height="51.0453" fill="white"/>
</clipPath>
</defs>
</svg>
