<svg preserveAspectRatio="none" width="100%" height="100%" overflow="visible" style="display: block;" viewBox="0 0 150 51.0453" fill="none" xmlns="http://www.w3.org/2000/svg">
<g id="Brand / Light" clip-path="url(#clip0_0_8)">
<path id="Vector" d="M0 10.8594H10.8839L24.7362 39.9407L37.3286 14.6055H47.6744V15.1442C47.6744 15.1442 45.7189 15.1442 45.2651 15.9393C44.8114 16.7343 44.5845 18.0681 44.5845 18.9476V47.2992C44.5845 47.2992 44.443 48.8602 45.1226 49.5125C45.8022 50.1648 46.2278 50.4493 46.7378 50.4493H47.6734V51.0453H36.5626V50.4211C36.5626 50.4211 38.1779 50.6201 38.8585 49.6834C39.5391 48.7466 39.4538 48.3777 39.4538 47.4128V17.9546C39.4538 17.9546 39.1988 17.0751 38.7731 17.8983C38.3475 18.7215 24.0626 47.5274 24.0626 47.5274C24.0626 47.5274 23.8638 47.7827 23.5526 47.7827C23.2414 47.7827 22.872 46.874 22.6451 46.4207C22.4182 45.9674 15.9845 33.139 15.9845 33.139L6.74394 14.7492C6.74394 14.7492 6.34742 14.2386 6.34742 15.2598V44.718C6.34742 44.718 6.51707 48.1807 7.11236 48.9747C7.70765 49.7688 8.21761 50.394 8.72757 50.394C9.23753 50.394 9.7475 50.4503 9.7475 50.4503V51.0463H0.567182V50.4221C0.567182 50.4221 2.18239 50.5076 2.74958 49.8834C3.31676 49.2592 3.7695 47.8681 3.82672 47.1876C3.88394 46.5072 3.91205 44.8316 3.94016 44.2929C3.96826 43.7541 3.94016 14.7774 3.94016 14.7774C3.94016 14.7774 4.02549 13.1028 3.4583 12.6204C2.89112 12.1379 1.559 11.57 0.850271 11.57H0.141544L0 10.8604V10.8594Z" fill="var(--fill-0, #222831)"/>
<g id="Group">
<path id="Vector_2" d="M47.6754 7.2369H54.9032C49.7915 7.2369 47.6754 5.36335 47.6754 0C47.6754 5.1181 45.8042 7.2369 40.4476 7.2369H47.6754Z" fill="url(#paint0_linear_0_8)"/>
<path id="Vector_3" d="M47.6754 7.2369H40.4476C45.5593 7.2369 47.6754 9.11045 47.6754 14.4738C47.6754 9.3557 49.5466 7.2369 54.9032 7.2369H47.6754Z" fill="url(#paint1_linear_0_8)"/>
</g>
<g id="Group_2">
<path id="Vector_4" d="M66.3803 29.8296C66.3261 29.8296 66.2729 29.8186 66.2197 29.7964C66.1665 29.7743 66.1253 29.7412 66.0992 29.6959L63.0806 22.8581H63.0405L63.0676 28.1913C63.0766 28.3611 63.0917 28.525 63.1148 28.6818C63.1368 28.8386 63.2061 28.9682 63.3226 29.0718C63.439 29.1753 63.6358 29.2265 63.9128 29.2265C64.0112 29.2265 64.0915 29.2356 64.1548 29.2537C64.217 29.2718 64.2531 29.3572 64.2622 29.509C64.2622 29.5803 64.2421 29.6477 64.2019 29.71C64.1618 29.7723 64.1016 29.8045 64.0212 29.8045C63.8335 29.7954 63.6809 29.7884 63.5655 29.7844C63.449 29.7794 63.3376 29.7753 63.2302 29.7713C63.1228 29.7663 62.9792 29.7643 62.8006 29.7643C62.5325 29.7643 62.3157 29.7663 62.15 29.7713C61.9844 29.7753 61.7585 29.7864 61.4724 29.8045C61.3831 29.8045 61.3199 29.7733 61.2847 29.71C61.2486 29.6477 61.2315 29.5803 61.2315 29.509C61.2405 29.3572 61.2757 29.2718 61.3389 29.2537C61.4012 29.2356 61.4775 29.2265 61.5668 29.2265C61.8529 29.2265 62.0517 29.1753 62.1641 29.0718C62.2755 28.9692 62.3448 28.8386 62.3719 28.6818C62.399 28.525 62.4121 28.3621 62.4121 28.1913L62.4392 22.8581C62.4392 22.5716 62.408 22.3585 62.3448 22.2198C62.2826 22.0811 62.1842 21.9826 62.0497 21.9243C61.9151 21.866 61.7455 21.8188 61.5397 21.7836C61.4142 21.7564 61.3269 21.7343 61.2777 21.7162C61.2285 21.6982 61.2034 21.6177 61.2034 21.474C61.2034 21.3222 61.2566 21.2388 61.364 21.2257C61.4714 21.2127 61.5969 21.2056 61.7395 21.2056C62.1772 21.2056 62.5646 21.2418 62.8999 21.3132C63.2352 21.3846 63.5283 21.5212 63.7783 21.7233C64.0283 21.9243 64.2341 22.2268 64.3957 22.6299L66.7036 27.8153H66.7437L69.3869 21.286H70.1518C70.4199 21.286 70.6819 21.282 70.9368 21.273C71.1918 21.2639 71.4619 21.2549 71.749 21.2458C71.8383 21.2458 71.9005 21.277 71.9367 21.3403C71.9728 21.4026 71.9909 21.47 71.9909 21.5414C71.9819 21.6941 71.9457 21.7786 71.8835 21.7967C71.8212 21.8147 71.745 21.8238 71.6556 21.8238C71.3785 21.8238 71.1788 21.8751 71.0583 21.9786C70.9378 22.0821 70.8636 22.2118 70.8365 22.3686C70.8094 22.5254 70.7913 22.6892 70.7822 22.8591V28.1923C70.7913 28.3621 70.8094 28.526 70.8365 28.6828C70.8636 28.8396 70.9368 28.9692 71.0583 29.0728C71.1788 29.1763 71.3785 29.2275 71.6556 29.2275C71.745 29.2275 71.8212 29.2366 71.8835 29.2547C71.9457 29.2728 71.9819 29.3582 71.9909 29.51C71.9909 29.5813 71.9728 29.6487 71.9367 29.711C71.9005 29.7733 71.8383 29.8055 71.749 29.8055C71.4629 29.7874 71.1898 29.7763 70.9308 29.7723C70.6708 29.7673 70.4078 29.7653 70.1388 29.7653C69.6198 29.7653 69.0697 29.7784 68.4884 29.8055C68.3991 29.8055 68.3358 29.7743 68.3007 29.711C68.2646 29.6487 68.2475 29.5813 68.2475 29.51C68.2565 29.3582 68.2917 29.2728 68.3549 29.2547C68.4172 29.2366 68.4934 29.2275 68.5828 29.2275C68.8689 29.2275 69.0707 29.1763 69.1861 29.0728C69.3026 28.9702 69.3758 28.8396 69.408 28.6828C69.4391 28.526 69.4551 28.3631 69.4551 28.1923V22.8591H69.415L66.6504 29.6969C66.6323 29.7422 66.5972 29.7753 66.5429 29.7975C66.4897 29.8196 66.4355 29.8306 66.3823 29.8306L66.3803 29.8296Z" fill="var(--fill-0, #222831)"/>
<path id="Vector_5" d="M76.0535 29.8025C75.9732 29.8025 75.915 29.7713 75.8789 29.708C75.8427 29.6457 75.8257 29.5783 75.8257 29.507C75.8347 29.3552 75.8698 29.2698 75.9331 29.2517C75.9953 29.2336 76.0716 29.2245 76.161 29.2245C76.4471 29.2245 76.6488 29.1733 76.7653 29.0697C76.8817 28.9672 76.955 28.8366 76.9871 28.6798C77.0183 28.523 77.0343 28.3601 77.0343 28.1893V22.8561C77.0343 22.6862 77.0183 22.5224 76.9871 22.3656C76.956 22.2088 76.8817 22.0791 76.7653 21.9756C76.6488 21.873 76.4481 21.8208 76.161 21.8208C76.0716 21.8208 75.9953 21.8117 75.9331 21.7936C75.8708 21.7755 75.8347 21.6911 75.8257 21.5383C75.8257 21.467 75.8437 21.3996 75.8789 21.3373C75.915 21.275 75.9732 21.2428 76.0535 21.2428C76.3487 21.2519 76.6217 21.2609 76.8717 21.27C77.1217 21.279 77.3817 21.283 77.6497 21.283H81.8629C81.9613 21.283 82.0436 21.3052 82.1108 21.3504C82.1781 21.3956 82.2112 21.48 82.2112 21.6057L82.2514 23.4863C82.2514 23.5757 82.2092 23.6431 82.1239 23.6873C82.0386 23.7325 81.9603 23.7546 81.889 23.7546C81.7906 23.7546 81.7013 23.7345 81.621 23.6943C81.5406 23.6541 81.4915 23.5938 81.4734 23.5134C81.4111 23.1104 81.3369 22.7857 81.2515 22.5394C81.1662 22.2932 81.0417 22.1143 80.8761 22.0017C80.7105 21.8901 80.4715 21.8298 80.1583 21.8208H78.3604V25.2332H80.7888C80.86 25.2422 80.9112 25.2784 80.9434 25.3407C80.9745 25.403 80.9905 25.4704 80.9905 25.5418C80.9905 25.6041 80.9745 25.6654 80.9434 25.7227C80.9122 25.781 80.86 25.8101 80.7888 25.8101H78.3604V28.3491C78.3695 28.4657 78.3875 28.5933 78.4146 28.732C78.4417 28.8707 78.52 28.9893 78.6495 29.0878C78.779 29.1863 78.9959 29.2316 79.3 29.2225H80.5348C80.848 29.2135 81.0869 29.1622 81.2525 29.0677C81.4182 28.9733 81.5497 28.8144 81.6481 28.5913C81.7464 28.3672 81.8539 28.0586 81.9703 27.6646C82.0064 27.5751 82.0667 27.5168 82.151 27.4897C82.2363 27.4625 82.3277 27.4585 82.4261 27.4766C82.4973 27.4857 82.5716 27.5168 82.6479 27.5711C82.7242 27.6254 82.7573 27.6967 82.7483 27.7862L82.4803 29.4788C82.4532 29.6045 82.411 29.6829 82.3528 29.714C82.2945 29.7452 82.2072 29.7613 82.0908 29.7613H77.6627C77.3947 29.7613 77.1327 29.7633 76.8777 29.7683C76.6227 29.7723 76.3477 29.7834 76.0525 29.8015L76.0535 29.8025Z" fill="var(--fill-0, #222831)"/>
<path id="Vector_6" d="M86.7216 29.8025C86.6322 29.8025 86.569 29.7713 86.5338 29.708C86.4977 29.6457 86.4796 29.5783 86.4796 29.507C86.4887 29.3552 86.5248 29.2698 86.5871 29.2517C86.6493 29.2336 86.7256 29.2245 86.8149 29.2245C87.101 29.2245 87.3028 29.1733 87.4183 29.0697C87.5347 28.9672 87.608 28.8366 87.6401 28.6798C87.6712 28.523 87.6873 28.3601 87.6873 28.1893V22.8691C87.6873 22.6993 87.6712 22.5334 87.6401 22.3716C87.609 22.2108 87.5347 22.0781 87.4183 21.9756C87.3018 21.873 87.101 21.8208 86.8149 21.8208C86.7256 21.8208 86.6493 21.8117 86.5871 21.7936C86.5248 21.7755 86.4887 21.6911 86.4796 21.5383C86.4796 21.467 86.4977 21.3996 86.5338 21.3373C86.569 21.275 86.6322 21.2428 86.7216 21.2428C87.0077 21.2519 87.2787 21.2609 87.5337 21.27C87.7887 21.279 88.0507 21.283 88.3187 21.283H90.6266C91.3514 21.2921 91.9396 21.4037 92.3914 21.6187C92.8431 21.8338 93.1714 22.1072 93.3772 22.4379C93.583 22.7696 93.6854 23.1144 93.6854 23.4722C93.6854 23.9466 93.4956 24.3949 93.1152 24.8161C92.7347 25.2372 92.2006 25.5367 91.512 25.7166C91.8513 26.2544 92.1966 26.7941 92.545 27.3359C92.8933 27.8777 93.2959 28.3863 93.7526 28.8607C93.8781 28.9592 94.0006 29.0396 94.122 29.1029C94.2425 29.1652 94.3881 29.2064 94.5577 29.2235C94.629 29.2326 94.7003 29.2436 94.7725 29.2567C94.8438 29.2698 94.884 29.3532 94.893 29.505C94.893 29.5763 94.8749 29.6437 94.8398 29.706C94.8037 29.7683 94.7414 29.8005 94.6521 29.8005C94.4644 29.7914 94.3148 29.7844 94.2023 29.7804C94.0899 29.7753 93.9805 29.7713 93.8741 29.7673C93.7667 29.7623 93.6231 29.7603 93.4444 29.7603C93.077 29.6889 92.7668 29.5592 92.5118 29.3703C92.2569 29.1823 92.0089 28.922 91.767 28.5913C91.516 28.2506 91.2841 27.9058 91.0693 27.557C90.8545 27.2083 90.6447 26.8675 90.4389 26.5358C90.3224 26.3479 90.204 26.2112 90.0835 26.1257C89.963 26.0403 89.7372 25.9981 89.4059 25.9981H89.0164V28.1882C89.0254 28.3581 89.0435 28.522 89.0696 28.6788C89.0967 28.8356 89.17 28.9652 89.2915 29.0687C89.4119 29.1723 89.6107 29.2235 89.8888 29.2235C89.9781 29.2235 90.0544 29.2326 90.1166 29.2507C90.1789 29.2688 90.215 29.3542 90.224 29.506C90.224 29.5773 90.206 29.6447 90.1708 29.707C90.1347 29.7693 90.0725 29.8015 89.9831 29.8015C89.4109 29.7743 88.8518 29.7613 88.3057 29.7613C88.0376 29.7613 87.7776 29.7633 87.5277 29.7683C87.2767 29.7723 87.0087 29.7834 86.7226 29.8015L86.7216 29.8025ZM89.0154 25.4764H90.1959C90.6517 25.4764 91.0121 25.4141 91.2761 25.2885C91.5401 25.1628 91.7389 25.002 91.8734 24.805C92.0079 24.608 92.0952 24.4019 92.1354 24.1868C92.1756 23.9717 92.1956 23.7747 92.1956 23.5958C92.1956 23.3003 92.1304 23.0139 92.0009 22.7365C91.8714 22.459 91.6435 22.2309 91.3162 22.051C90.99 21.872 90.5352 21.7826 89.954 21.7826C89.5695 21.7826 89.3166 21.857 89.1961 22.0047C89.0756 22.1525 89.0154 22.45 89.0154 22.8983V25.4774V25.4764Z" fill="var(--fill-0, #222831)"/>
<path id="Vector_7" d="M98.4075 29.8025C98.3182 29.8025 98.2549 29.7713 98.2198 29.708C98.1837 29.6457 98.1656 29.5783 98.1656 29.507C98.1746 29.3552 98.2108 29.2698 98.273 29.2517C98.3352 29.2336 98.4115 29.2245 98.5009 29.2245C98.787 29.2245 98.9888 29.1733 99.1042 29.0697C99.2207 28.9672 99.2939 28.8366 99.3261 28.6798C99.3572 28.523 99.3732 28.3601 99.3732 28.1893V22.8561C99.3732 22.6862 99.3572 22.5224 99.3261 22.3656C99.2949 22.2088 99.2207 22.0791 99.1042 21.9756C98.9878 21.873 98.787 21.8208 98.5009 21.8208C98.4115 21.8208 98.3352 21.8117 98.273 21.7936C98.2108 21.7755 98.1746 21.6911 98.1656 21.5383C98.1656 21.467 98.1837 21.3996 98.2198 21.3373C98.2549 21.275 98.3182 21.2428 98.4075 21.2428C98.6936 21.2519 98.9617 21.2609 99.2126 21.27C99.4626 21.279 99.7226 21.283 99.9906 21.283C100.536 21.283 101.095 21.27 101.668 21.2428C101.757 21.2428 101.82 21.274 101.856 21.3373C101.891 21.3996 101.909 21.467 101.909 21.5383C101.9 21.6911 101.867 21.7755 101.809 21.7936C101.75 21.8117 101.672 21.8208 101.574 21.8208C101.297 21.8208 101.097 21.872 100.976 21.9756C100.856 22.0791 100.782 22.2088 100.755 22.3656C100.727 22.5224 100.709 22.6862 100.701 22.8561V25.2875C100.853 25.2523 101.03 25.1598 101.231 25.0121C101.432 24.8643 101.636 24.7055 101.842 24.5356C102.181 24.222 102.512 23.8843 102.835 23.5215C103.157 23.1586 103.456 22.8118 103.734 22.4801C104.091 22.0771 104.051 21.862 103.614 21.8349C103.515 21.8258 103.453 21.7323 103.426 21.5524C103.426 21.472 103.448 21.4006 103.493 21.3373C103.537 21.275 103.595 21.2428 103.668 21.2428C103.901 21.2609 104.147 21.272 104.406 21.276C104.665 21.281 104.911 21.283 105.143 21.283C105.322 21.283 105.528 21.279 105.761 21.27C105.994 21.2609 106.194 21.2519 106.364 21.2428C106.453 21.2428 106.519 21.274 106.559 21.3373C106.599 21.3996 106.619 21.472 106.619 21.5524C106.61 21.6871 106.581 21.7675 106.532 21.7946C106.483 21.8218 106.422 21.8349 106.351 21.8349C106.02 21.8168 105.694 21.871 105.371 21.9957C105.049 22.1213 104.705 22.3676 104.338 22.7344C104.222 22.8601 104.072 23.0189 103.889 23.2119C103.705 23.4049 103.513 23.6039 103.311 23.8099C103.111 24.016 102.922 24.209 102.748 24.3879C102.574 24.5668 102.379 24.7728 102.165 25.006C102.693 25.6423 103.227 26.2283 103.768 26.766C104.309 27.3037 104.772 27.7782 105.156 28.1903C105.461 28.4948 105.709 28.734 105.901 28.9089C106.094 29.0838 106.342 29.1894 106.646 29.2245C106.717 29.2336 106.789 29.2446 106.861 29.2577C106.932 29.2708 106.972 29.3542 106.982 29.506C106.982 29.5773 106.963 29.6447 106.928 29.707C106.892 29.7693 106.83 29.8015 106.741 29.8015C106.553 29.7924 106.407 29.7854 106.305 29.7814C106.202 29.7763 106.104 29.7723 106.01 29.7683C105.915 29.7633 105.78 29.7613 105.6 29.7613H104.742C104.25 29.2155 103.747 28.6506 103.232 28.0686C102.718 27.4867 102.165 26.8555 101.575 26.174C101.414 25.986 101.264 25.8513 101.125 25.7709C100.986 25.6905 100.845 25.6453 100.702 25.6362V28.1893C100.711 28.3591 100.729 28.523 100.756 28.6798C100.783 28.8366 100.856 28.9662 100.977 29.0697C101.098 29.1733 101.297 29.2245 101.575 29.2245C101.673 29.2245 101.751 29.2336 101.81 29.2517C101.868 29.2698 101.901 29.3552 101.91 29.507C101.91 29.5783 101.892 29.6457 101.857 29.708C101.821 29.7703 101.758 29.8025 101.669 29.8025C101.097 29.7753 100.542 29.7623 100.006 29.7623C99.7376 29.7623 99.4756 29.7643 99.2207 29.7693C98.9657 29.7733 98.6946 29.7844 98.4085 29.8025H98.4075Z" fill="var(--fill-0, #222831)"/>
<path id="Vector_8" d="M114.482 30.0306C113.767 30.0306 113.167 29.905 112.684 29.6547C112.202 29.4045 111.839 29.0818 111.597 28.6878C111.355 28.2938 111.235 27.8777 111.235 27.4384V22.8571C111.235 22.6872 111.219 22.5234 111.188 22.3666C111.157 22.2098 111.082 22.0801 110.966 21.9766C110.849 21.8741 110.649 21.8218 110.362 21.8218C110.273 21.8218 110.197 21.8127 110.135 21.7946C110.072 21.7766 110.036 21.6921 110.027 21.5393C110.027 21.468 110.045 21.4006 110.081 21.3383C110.117 21.276 110.18 21.2438 110.269 21.2438C110.555 21.2529 110.823 21.2619 111.074 21.271C111.324 21.28 111.584 21.284 111.852 21.284C112.397 21.284 112.956 21.271 113.53 21.2438C113.619 21.2438 113.681 21.275 113.717 21.3383C113.753 21.4006 113.771 21.468 113.771 21.5393C113.762 21.674 113.734 21.7544 113.69 21.7816C113.645 21.8087 113.583 21.8218 113.503 21.8218C113.198 21.8218 112.982 21.869 112.852 21.9625C112.723 22.057 112.644 22.1816 112.617 22.3384C112.59 22.4952 112.572 22.6681 112.564 22.8561V27.0474C112.564 27.2806 112.588 27.5249 112.638 27.7802C112.687 28.0355 112.784 28.2727 112.926 28.4918C113.069 28.7109 113.282 28.8908 113.564 29.0295C113.846 29.1682 114.223 29.2376 114.697 29.2376C115.306 29.2376 115.772 29.1371 116.1 28.9351C116.426 28.734 116.652 28.4807 116.777 28.1762C116.903 27.8716 116.965 27.558 116.965 27.2354V23.7024C116.965 23.1114 116.943 22.6832 116.898 22.4188C116.852 22.1545 116.757 21.9886 116.61 21.9213C116.462 21.8539 116.236 21.8208 115.932 21.8208C115.843 21.8208 115.766 21.8117 115.704 21.7936C115.642 21.7755 115.606 21.6911 115.597 21.5383C115.597 21.467 115.615 21.3996 115.65 21.3373C115.686 21.275 115.748 21.2428 115.838 21.2428C116.124 21.2519 116.379 21.2609 116.602 21.27C116.826 21.279 117.072 21.283 117.34 21.283C117.608 21.283 117.854 21.279 118.078 21.27C118.302 21.2609 118.557 21.2519 118.843 21.2428C118.932 21.2428 118.995 21.274 119.031 21.3373C119.067 21.3996 119.085 21.467 119.085 21.5383C119.076 21.673 119.049 21.7534 119.005 21.7806C118.96 21.8077 118.897 21.8208 118.817 21.8208C118.575 21.8208 118.381 21.8338 118.234 21.861C118.086 21.8881 117.974 21.9575 117.898 22.069C117.822 22.1816 117.773 22.3605 117.751 22.6068C117.729 22.853 117.718 23.1908 117.718 23.621V27.3691C117.718 27.8435 117.617 28.2516 117.416 28.5913C117.214 28.932 116.951 29.2074 116.624 29.4175C116.297 29.6276 115.946 29.7824 115.571 29.8809C115.195 29.9794 114.833 30.0286 114.483 30.0286L114.482 30.0306Z" fill="var(--fill-0, #222831)"/>
<path id="Vector_9" d="M122.546 29.8025C122.457 29.8025 122.394 29.7713 122.359 29.708C122.323 29.6457 122.305 29.5783 122.305 29.507C122.314 29.3552 122.35 29.2698 122.413 29.2517C122.475 29.2336 122.551 29.2245 122.641 29.2245C122.927 29.2245 123.129 29.1733 123.245 29.0697C123.362 28.9672 123.435 28.8366 123.467 28.6798C123.498 28.523 123.514 28.3601 123.514 28.1893V22.8691C123.514 22.6993 123.498 22.5334 123.467 22.3716C123.436 22.2108 123.362 22.0781 123.245 21.9756C123.129 21.873 122.928 21.8208 122.641 21.8208C122.551 21.8208 122.475 21.8117 122.413 21.7936C122.351 21.7755 122.314 21.6911 122.305 21.5383C122.305 21.467 122.324 21.3996 122.359 21.3373C122.395 21.275 122.457 21.2428 122.546 21.2428C122.832 21.2519 123.104 21.2609 123.358 21.27C123.613 21.279 123.875 21.283 124.144 21.283H126.451C127.176 21.2921 127.764 21.4037 128.216 21.6187C128.668 21.8338 128.996 22.1072 129.202 22.4379C129.408 22.7696 129.51 23.1144 129.51 23.4722C129.51 23.9466 129.32 24.3949 128.94 24.8161C128.559 25.2372 128.025 25.5367 127.337 25.7166C127.677 26.2544 128.021 26.7941 128.37 27.3359C128.719 27.8777 129.122 28.3863 129.577 28.8607C129.703 28.9592 129.825 29.0396 129.947 29.1029C130.067 29.1652 130.213 29.2064 130.383 29.2235C130.454 29.2326 130.525 29.2436 130.597 29.2567C130.669 29.2698 130.709 29.3532 130.718 29.505C130.718 29.5763 130.7 29.6437 130.664 29.706C130.627 29.7683 130.565 29.8005 130.476 29.8005C130.288 29.7914 130.139 29.7844 130.026 29.7804C129.914 29.7753 129.804 29.7713 129.697 29.7673C129.589 29.7623 129.446 29.7603 129.267 29.7603C128.9 29.6889 128.59 29.5592 128.335 29.3703C128.08 29.1813 127.832 28.922 127.59 28.5913C127.339 28.2506 127.107 27.9058 126.892 27.557C126.677 27.2083 126.467 26.8675 126.262 26.5358C126.145 26.3479 126.027 26.2112 125.906 26.1257C125.786 26.0403 125.56 25.9981 125.229 25.9981H124.839V28.1882C124.848 28.3581 124.866 28.522 124.893 28.6788C124.921 28.8356 124.994 28.9652 125.115 29.0687C125.236 29.1723 125.434 29.2235 125.713 29.2235C125.802 29.2235 125.878 29.2326 125.94 29.2507C126.003 29.2688 126.039 29.3542 126.048 29.506C126.048 29.5773 126.03 29.6447 125.994 29.707C125.957 29.7693 125.895 29.8015 125.806 29.8015C125.234 29.7743 124.675 29.7613 124.128 29.7613C123.86 29.7613 123.6 29.7633 123.35 29.7683C123.1 29.7723 122.831 29.7834 122.545 29.8015L122.546 29.8025ZM124.841 25.4764H126.022C126.477 25.4764 126.838 25.4141 127.102 25.2885C127.366 25.1628 127.565 25.002 127.699 24.805C127.834 24.608 127.921 24.4019 127.961 24.1868C128.001 23.9717 128.021 23.7747 128.021 23.5958C128.021 23.3003 127.956 23.0139 127.827 22.7365C127.697 22.459 127.468 22.2309 127.142 22.051C126.816 21.872 126.361 21.7826 125.78 21.7826C125.395 21.7826 125.142 21.857 125.022 22.0047C124.901 22.1525 124.841 22.45 124.841 22.8983V25.4774V25.4764Z" fill="var(--fill-0, #222831)"/>
<path id="Vector_10" d="M134.22 29.8025C134.131 29.8025 134.068 29.7713 134.033 29.708C133.996 29.6457 133.979 29.5783 133.979 29.507C133.988 29.3552 134.024 29.2698 134.087 29.2517C134.149 29.2336 134.225 29.2245 134.315 29.2245C134.601 29.2245 134.803 29.1733 134.918 29.0697C135.034 28.9672 135.108 28.8366 135.14 28.6798C135.171 28.523 135.191 28.3601 135.2 28.1893V22.8561C135.191 22.6862 135.171 22.5224 135.14 22.3656C135.109 22.2088 135.034 22.0791 134.918 21.9756C134.801 21.873 134.601 21.8208 134.315 21.8208C134.225 21.8208 134.149 21.8117 134.087 21.7936C134.025 21.7755 133.988 21.6911 133.979 21.5383C133.979 21.467 133.997 21.3996 134.033 21.3373C134.069 21.275 134.131 21.2428 134.22 21.2428C134.506 21.2519 134.777 21.2609 135.032 21.27C135.287 21.279 135.549 21.283 135.817 21.283C136.363 21.283 136.922 21.27 137.495 21.2428C137.575 21.2428 137.635 21.274 137.676 21.3373C137.716 21.3996 137.736 21.467 137.736 21.5383C137.727 21.6911 137.691 21.7755 137.628 21.7936C137.566 21.8117 137.485 21.8208 137.386 21.8208C137.109 21.8208 136.91 21.872 136.789 21.9756C136.669 22.0791 136.594 22.2088 136.567 22.3656C136.54 22.5224 136.522 22.6862 136.513 22.8561V28.1893C136.522 28.3591 136.54 28.523 136.567 28.6798C136.594 28.8366 136.668 28.9662 136.789 29.0697C136.91 29.1733 137.109 29.2245 137.386 29.2245C137.485 29.2245 137.565 29.2336 137.628 29.2517C137.691 29.2698 137.727 29.3552 137.736 29.507C137.736 29.5783 137.716 29.6457 137.676 29.708C137.635 29.7703 137.575 29.8025 137.495 29.8025C136.923 29.7753 136.368 29.7623 135.831 29.7623C135.563 29.7623 135.299 29.7643 135.039 29.7693C134.779 29.7733 134.507 29.7844 134.221 29.8025H134.22Z" fill="var(--fill-0, #222831)"/>
<path id="Vector_11" d="M145.679 30.0306C145.026 30.0306 144.436 29.91 143.909 29.6678C143.381 29.4256 142.929 29.0989 142.553 28.6868C142.178 28.2747 141.891 27.8073 141.695 27.2826C141.498 26.759 141.4 26.2102 141.4 25.6372C141.4 24.8934 141.527 24.2361 141.782 23.6622C142.037 23.0892 142.375 22.6058 142.795 22.2108C143.216 21.8168 143.679 21.5192 144.184 21.3172C144.689 21.1162 145.187 21.0147 145.679 21.0147C146.35 21.0147 146.951 21.1353 147.484 21.3775C148.016 21.6197 148.47 21.9464 148.847 22.3585C149.222 22.7706 149.508 23.238 149.705 23.7627C149.902 24.2863 150 24.8311 150 25.395C150 26.1388 149.87 26.7971 149.61 27.3701C149.35 27.943 149.007 28.4275 148.578 28.8215C148.148 29.2155 147.681 29.516 147.175 29.7221C146.669 29.9281 146.171 30.0306 145.679 30.0306ZM145.665 29.4396C146.301 29.4396 146.82 29.2517 147.221 28.8757C147.624 28.4998 147.921 28.0043 148.114 27.3912C148.306 26.7781 148.402 26.1127 148.402 25.396C148.402 24.7246 148.301 24.0994 148.1 23.5214C147.899 22.9435 147.597 22.4781 147.194 22.1243C146.792 21.7705 146.282 21.5936 145.664 21.5936C145.047 21.5936 144.526 21.7796 144.128 22.1515C143.73 22.5234 143.438 23.0108 143.25 23.6159C143.062 24.221 142.968 24.8814 142.968 25.597C142.968 26.2685 143.064 26.8977 143.256 27.4847C143.449 28.0716 143.746 28.5441 144.148 28.9019C144.551 29.2597 145.056 29.4396 145.664 29.4396H145.665Z" fill="var(--fill-0, #222831)"/>
</g>
</g>
<defs>
<linearGradient id="paint0_linear_0_8" x1="41.1433" y1="2.86762" x2="55.2738" y2="6.49358" gradientUnits="userSpaceOnUse">
<stop stop-color="#7A869B"/>
<stop offset="0.11" stop-color="#8A96B4"/>
<stop offset="0.22" stop-color="#8792A8"/>
<stop offset="0.47" stop-color="#E2E4EC"/>
<stop offset="0.64" stop-color="#A2A7B8"/>
<stop offset="0.82" stop-color="#B6BED1"/>
<stop offset="1" stop-color="#939CAA"/>
</linearGradient>
<linearGradient id="paint1_linear_0_8" x1="39.8483" y1="7.91234" x2="53.9789" y2="11.5383" gradientUnits="userSpaceOnUse">
<stop stop-color="#7A869B"/>
<stop offset="0.11" stop-color="#8A96B4"/>
<stop offset="0.22" stop-color="#8792A8"/>
<stop offset="0.47" stop-color="#E2E4EC"/>
<stop offset="0.64" stop-color="#A2A7B8"/>
<stop offset="0.82" stop-color="#B6BED1"/>
<stop offset="1" stop-color="#939CAA"/>
</linearGradient>
<clipPath id="clip0_0_8">
<rect width="150" height="51.0453" fill="white"/>
</clipPath>
</defs>
</svg>
