<svg preserveAspectRatio="none" width="100%" height="100%" overflow="visible" style="display: block;" viewBox="0 0 24 24" fill="none" xmlns="http://www.w3.org/2000/svg">
<g id="Vector paths / settings / currentColor=default">
<path id="Vector" d="M12 15.5C12.4596 15.5 12.9148 15.4095 13.3394 15.2336C13.764 15.0577 14.1499 14.7999 14.4749 14.4749C14.7999 14.1499 15.0577 13.764 15.2336 13.3394C15.4095 12.9148 15.5 12.4596 15.5 12C15.5 11.5404 15.4095 11.0852 15.2336 10.6606C15.0577 10.236 14.7999 9.85013 14.4749 9.52513C14.1499 9.20012 13.764 8.94231 13.3394 8.76642C12.9148 8.59053 12.4596 8.5 12 8.5C11.0717 8.5 10.1815 8.86875 9.52513 9.52513C8.86875 10.1815 8.5 11.0717 8.5 12C8.5 12.9283 8.86875 13.8185 9.52513 14.4749C10.1815 15.1313 11.0717 15.5 12 15.5Z" stroke="var(--stroke-0, #34465B)" stroke-width="1.8" stroke-linecap="round" stroke-linejoin="round"/>
<path id="Vector_2" d="M19 12C18.9957 11.6313 18.9623 11.2635 18.9 10.9L20.9 9.4L18.9 6L16.5 7C15.9241 6.54212 15.2839 6.17148 14.6 5.9L14.3 3H9.7L9.3 5.9C8.61614 6.17148 7.97595 6.54212 7.4 7L5 6L3 9.4L5 10.9C4.97115 11.2661 4.97115 11.6339 5 12C5 12.4 5 12.8 5.1 13.1L3.1 14.6L5 18L7.4 17C7.97595 17.4579 8.61614 17.8285 9.3 18.1L9.7 21H14.3L14.7 18.1C15.3839 17.8285 16.0241 17.4579 16.6 17L19 18L21 14.6L19 13.1C19.1 12.8 19.1 12.4 19.1 12H19Z" stroke="var(--stroke-0, #34465B)" stroke-width="1.8" stroke-linecap="round" stroke-linejoin="round"/>
</g>
</svg>
